<?xml version="1.0" encoding="iso-8859-1"?>
<!-- Uploaded to: SVG Repo, www.svgrepo.com, Generator: SVG Repo Mixer Tools -->
<svg fill="#000000" height="800px" width="800px" version="1.1" id="Layer_1" xmlns="http://www.w3.org/2000/svg" xmlns:xlink="http://www.w3.org/1999/xlink" 
	 viewBox="0 0 512.001 512.001" xml:space="preserve">
<g>
	<g>
		<path d="M255.825,149.065c-59.014,0-107.026,48.011-107.026,107.026c0,59.014,48.012,107.026,107.026,107.026
			c59.015,0,107.026-48.011,107.026-107.026S314.84,149.065,255.825,149.065z M255.825,342.218
			c-47.491,0-86.128-38.637-86.128-86.128s38.637-86.128,86.128-86.128c47.491,0,86.128,38.637,86.128,86.128
			S303.315,342.218,255.825,342.218z"/>
	</g>
</g>
<g>
	<g>
		<path d="M255.825,197.097c-5.77,0-10.449,4.678-10.449,10.449c0,5.771,4.679,10.449,10.449,10.449
			c21.008,0,38.098,17.089,38.098,38.096c0,5.771,4.679,10.449,10.449,10.449s10.449-4.678,10.449-10.449
			C314.821,223.562,288.356,197.097,255.825,197.097z"/>
	</g>
</g>
<g>
	<g>
		<path d="M255.825,294.186c-21.005,0-38.096-17.089-38.096-38.096c0-5.771-4.679-10.449-10.449-10.449
			c-5.771,0-10.449,4.678-10.449,10.449c0,32.529,26.464,58.994,58.994,58.994c5.771,0,10.449-4.678,10.449-10.449
			C266.274,298.865,261.596,294.186,255.825,294.186z"/>
	</g>
</g>
<g>
	<g>
		<path d="M195.883,409.935c-1.411-0.55-2.813-1.118-4.204-1.705c-5.318-2.247-11.446,0.245-13.692,5.559
			c-2.245,5.315,0.242,11.446,5.559,13.692c1.528,0.645,3.123,1.293,4.745,1.925c1.247,0.486,2.531,0.717,3.793,0.717
			c4.181,0,8.127-2.527,9.737-6.656C203.919,418.089,201.259,412.032,195.883,409.935z"/>
	</g>
</g>
<g>
	<g>
		<path d="M164.898,393.875c-22.579-14.934-41.334-35.384-54.233-59.14c-2.754-5.073-9.097-6.949-14.17-4.196
			c-5.071,2.754-6.95,9.098-4.196,14.169c14.527,26.753,35.646,49.783,61.07,66.599c1.774,1.173,3.775,1.734,5.755,1.734
			c3.389,0,6.714-1.647,8.725-4.685C171.033,403.541,169.711,397.058,164.898,393.875z"/>
	</g>
</g>
<g>
	<g>
		<path d="M447.594,0H64.406C28.892,0,0,28.892,0,64.406v103.796v279.393c0,35.514,28.892,64.406,64.406,64.406h383.188
			c35.513,0,64.406-28.892,64.406-64.406V168.202V64.406C512,28.892,483.108,0,447.594,0z M110.2,20.898h9.943v136.855H110.2V20.898
			z M79.36,20.898h9.942v136.855H79.36V20.898z M20.898,64.406c0-21.973,16.377-40.183,37.564-43.092v136.438H20.898V64.406z
			 M491.102,447.595c0,23.99-19.518,43.507-43.508,43.507H64.406c-23.991,0-43.508-19.518-43.508-43.508V178.651h105.994
			c-13.647,22.637-21.508,49.136-21.508,77.439c0,82.953,67.488,150.441,150.441,150.441s150.441-67.487,150.441-150.441
			c0-28.303-7.861-54.804-21.508-77.439h106.344V447.595z M255.825,126.547c71.43,0,129.543,58.113,129.543,129.543
			s-58.112,129.543-129.543,129.543c-71.43,0-129.542-58.113-129.542-129.543C126.282,184.66,184.395,126.547,255.825,126.547z
			 M491.102,157.753H369.586c-27.606-31.893-68.368-52.103-113.761-52.103c-45.393,0-86.155,20.209-113.761,52.103h-1.024V20.898
			h306.554c23.991,0,43.508,19.518,43.508,43.508V157.753z"/>
	</g>
</g>
<g>
	<g>
		<path d="M456.542,44.923h-79.397c-5.77,0-10.449,4.678-10.449,10.449v79.398c0,5.771,4.679,10.449,10.449,10.449h79.397
			c5.771,0,10.449-4.678,10.449-10.449V55.372C466.991,49.601,462.313,44.923,456.542,44.923z M446.093,124.322h-58.5V65.821h58.5
			V124.322z"/>
	</g>
</g>
</svg>